<svg width="14" height="12" viewBox="0 0 14 12" fill="none" xmlns="http://www.w3.org/2000/svg">
<path fill-rule="evenodd" clip-rule="evenodd" d="M2.25 2.25H11.75C12.0261 2.25 12.25 2.47386 12.25 2.75V3.75H1.75V2.75C1.75 2.47386 1.97386 2.25 2.25 2.25ZM1.75 5.25V9.25C1.75 9.52614 1.97386 9.75 2.25 9.75H11.75C12.0261 9.75 12.25 9.52614 12.25 9.25V5.25H1.75ZM0.25 2.75C0.25 1.64543 1.14543 0.75 2.25 0.75H11.75C12.8546 0.75 13.75 1.64543 13.75 2.75V9.25C13.75 10.3546 12.8546 11.25 11.75 11.25H2.25C1.14543 11.25 0.25 10.3546 0.25 9.25V2.75Z" fill="#605dec"/>
</svg>
