<svg width="18" height="18" viewBox="0 0 18 18" fill="none" xmlns="http://www.w3.org/2000/svg">
<path fill-rule="evenodd" clip-rule="evenodd" d="M2.09562 13.4188C2.04552 13.7233 2.28043 14 2.58899 14H4.75968L4.59806 15.0173C4.50159 15.6246 4.97082 16.1742 5.58568 16.1742H7.3524C7.84403 16.1742 8.26274 15.8169 8.33998 15.3313L8.8418 12.1771H11.1101C12.5474 12.1771 13.7265 11.831 14.5667 11.0617C15.4069 10.2926 15.8041 9.23895 15.8041 7.96759C15.8041 6.8936 15.4535 6.00617 14.6993 5.38702C14.4843 5.20754 14.2447 5.05744 13.9824 4.93481C13.9023 4.05176 13.5497 3.36285 12.9244 2.86809C12.2073 2.28936 11.1611 2 9.78577 2H4.39927C4.15447 2 3.94566 2.17725 3.90591 2.41881L2.09562 13.4188ZM6.4861 9.50638H9.11573C10.7027 9.50638 11.9134 9.13759 12.7481 8.4C13.4189 7.8071 13.8202 7.03091 13.9518 6.07141C13.9892 6.09869 14.0252 6.12682 14.0598 6.15577L14.0598 6.15579L14.0635 6.15887C14.5395 6.54904 14.8041 7.12463 14.8041 7.96759C14.8041 9.0178 14.4846 9.78109 13.8915 10.3241C13.2984 10.8671 12.3981 11.1771 11.1101 11.1771H8.8418C8.35017 11.1771 7.93146 11.5344 7.85422 12.02L7.3524 15.1742H5.58568L6.4861 9.50638Z" fill="#605DEC"/>
</svg>
