<svg width="12" height="16" viewBox="0 0 12 16" fill="none" xmlns="http://www.w3.org/2000/svg">
<path d="M2.99463 15.0305C2.70717 14.8381 2.45191 14.6024 2.23859 14.3302C2.00582 14.0482 1.79007 13.7516 1.59195 13.4446C1.12641 12.7625 0.762367 12.0165 0.510151 11.2302C0.206277 10.3155 0.0585938 9.43972 0.0585938 8.58283C0.0585938 7.62667 0.265229 6.79231 0.667559 6.09194C0.965356 5.54382 1.40901 5.08523 1.94383 4.76306C2.46042 4.44028 3.06209 4.26366 3.66984 4.25148C3.88255 4.25148 4.1135 4.28193 4.3566 4.34284C4.53284 4.39156 4.74556 4.47073 5.00689 4.56817C5.34115 4.69607 5.52348 4.77524 5.58425 4.79351C5.77873 4.86659 5.94282 4.89704 6.07045 4.89704C6.16769 4.89704 6.30747 4.86659 6.46245 4.81787C6.55057 4.78742 6.7177 4.73261 6.95472 4.62908C7.18932 4.54381 7.37529 4.47073 7.52297 4.41592C7.74784 4.34893 7.96541 4.28802 8.16111 4.25757C8.39813 4.22103 8.63333 4.20885 8.8588 4.22712C9.29031 4.25757 9.68534 4.34893 10.0378 4.48291C10.6577 4.73261 11.1579 5.12238 11.5311 5.67659C11.3731 5.77403 11.2272 5.88731 11.0905 6.01155C10.7945 6.27343 10.5435 6.58403 10.3429 6.92813C10.0816 7.39707 9.94789 7.92692 9.95154 8.46286C9.96065 9.12242 10.1278 9.70221 10.462 10.2047C10.6972 10.5701 11.0115 10.8831 11.3943 11.1401C11.5827 11.268 11.748 11.3563 11.9048 11.4142C11.8319 11.6425 11.7517 11.8648 11.6587 12.0841C11.4478 12.5756 11.1968 13.0463 10.899 13.4909C10.6365 13.8746 10.4298 14.1608 10.273 14.3496C10.0287 14.642 9.79291 14.8612 9.55589 15.0177C9.29456 15.1913 8.98765 15.2833 8.67344 15.2833C8.46073 15.2924 8.24802 15.265 8.04503 15.2059C7.86878 15.1481 7.69496 15.0829 7.52479 15.0092C7.34672 14.9276 7.16258 14.8582 6.97478 14.8021C6.74384 14.7412 6.50681 14.712 6.26736 14.7126C6.02426 14.7126 5.78724 14.7431 5.56237 14.8009C5.37397 14.8545 5.19164 14.9203 5.01114 14.9989C4.75589 15.1054 4.58876 15.1755 4.49152 15.2059C4.29461 15.2644 4.09283 15.2997 3.88984 15.3125C3.57382 15.3125 3.27966 15.2211 2.98673 15.0384L2.99463 15.0305ZM7.16014 3.78802C6.74687 3.99509 6.35427 4.08278 5.96105 4.05355C5.90028 3.66013 5.96105 3.25574 6.12515 2.81298C6.27101 2.43539 6.46549 2.09434 6.7329 1.78983C7.01246 1.47314 7.34672 1.21126 7.72353 1.02246C8.12464 0.815394 8.50752 0.705771 8.87217 0.6875C8.92079 1.10163 8.87217 1.50968 8.72024 1.94817C8.58167 2.33794 8.37504 2.69727 8.11249 3.02005C7.84812 3.33674 7.51993 3.59861 7.1486 3.78741L7.16014 3.78802Z" fill="#27273F"/>
</svg>
