<svg width="320" height="156" viewBox="0 0 320 156" fill="none" xmlns="http://www.w3.org/2000/svg">
<path d="M67.3643 84.501H119C122.314 84.501 125 87.1873 125 90.501C125 93.8147 122.314 96.501 119 96.501H74.2506C70.0512 96.501 66.1387 94.323 63.913 90.7618C62.2139 88.0433 64.1584 84.501 67.3643 84.501Z" fill="url(#paint0_linear_3004_4813)"/>
<path opacity="0.5" d="M118.994 96.501H74.1447C71.3148 96.501 68.6214 95.5039 66.5 93.751H124.038C122.97 95.4056 121.11 96.501 118.994 96.501Z" fill="#407AEA"/>
<path d="M85.4943 141.751H38C32.4772 141.751 28 137.274 28 131.751C28 126.228 32.4772 121.751 38 121.751H85.4943L122.719 45.2327C125.372 39.7807 126.75 33.7971 126.75 27.7341V0.500977C126.75 -5.02187 131.227 -9.49902 136.75 -9.49902H194V36.501L139 130.5H131V141.751H85.4943Z" fill="url(#paint1_linear_3004_4813)"/>
<path opacity="0.5" d="M140.5 -1.14605V6.08706C140.5 11.6099 144.977 16.0871 150.5 16.0871H163.318C168.841 16.0871 173.318 11.6099 173.318 6.08706V-1.14605C173.318 -4.63708 175.378 -7.71029 178.5 -9.49902H145.682C142.56 -7.71029 140.5 -4.63708 140.5 -1.14605Z" fill="#D5FFFA"/>
<path opacity="0.5" d="M85.427 141.751H37.9327C34.0285 141.751 30.6468 139.514 29 136.251H130.933V141.751H85.427Z" fill="#1513A0"/>
<path fill-rule="evenodd" clip-rule="evenodd" d="M194.25 -9.49902C199.773 -9.49902 204.25 -5.02187 204.25 0.500977V27.7341C204.25 36.8285 202.183 45.804 198.204 53.982L160.979 130.5C157.631 137.383 150.648 141.751 142.994 141.751H95.5C89.9772 141.751 85.5 137.274 85.5 131.751C85.5 126.228 89.9772 121.751 95.5 121.751H142.994L180.219 45.2327C182.872 39.7807 184.25 33.7971 184.25 27.7341V0.500977C184.25 -5.02187 188.727 -9.49902 194.25 -9.49902Z" fill="url(#paint2_linear_3004_4813)"/>
<path d="M155.283 130.274C153.715 133.472 150.445 135.501 146.86 135.501H111.683C109.097 135.501 107 133.421 107 130.855C107 128.29 109.097 126.21 111.683 126.21H146.86L152.781 114.974C153.582 113.453 155.16 112.501 156.879 112.501C160.353 112.501 162.591 116.183 160.992 119.266L155.283 130.274Z" fill="url(#paint3_linear_3004_4813)"/>
<path d="M139.864 84.501H206.5C209.814 84.501 212.5 87.1873 212.5 90.501C212.5 93.8147 209.814 96.501 206.5 96.501H146.787C142.565 96.501 138.641 94.326 136.403 90.7459C134.704 88.0273 136.658 84.501 139.864 84.501Z" fill="url(#paint4_linear_3004_4813)"/>
<path opacity="0.5" d="M206.494 96.501H146.645C143.815 96.501 141.121 95.5039 139 93.751H211.538C210.47 95.4056 208.61 96.501 206.494 96.501Z" fill="#407AEA"/>
<path d="M172.994 141.751H125.5C119.977 141.751 115.5 137.274 115.5 131.751C115.5 126.228 119.977 121.751 125.5 121.751H172.994L210.219 45.2327C212.872 39.7807 214.25 33.7971 214.25 27.7341V0.500977C214.25 -5.02187 218.727 -9.49902 224.25 -9.49902H281.5V36.501L226.5 130.5H218.5V141.751H172.994Z" fill="url(#paint5_linear_3004_4813)"/>
<path d="M172.994 141.751H125.5C119.977 141.751 115.5 137.274 115.5 131.751C115.5 126.228 119.977 121.751 125.5 121.751H172.994L210.219 45.2327C212.872 39.7807 214.25 33.7971 214.25 27.7341V0.500977C214.25 -5.02187 218.727 -9.49902 224.25 -9.49902H281.5V36.501L226.5 130.5H218.5V141.751H172.994Z" fill="url(#paint6_linear_3004_4813)"/>
<path opacity="0.5" d="M228 -1.14605V6.08706C228 11.6099 232.477 16.0871 238 16.0871H250.818C256.341 16.0871 260.818 11.6099 260.818 6.08706V-1.14605C260.818 -4.63708 262.878 -7.71029 266 -9.49902H233.182C230.06 -7.71029 228 -4.63708 228 -1.14605Z" fill="#D5FFFA"/>
<path opacity="0.5" d="M172.927 141.751H125.433C121.528 141.751 118.147 139.514 116.5 136.251H218.433V141.751H172.927Z" fill="#1513A0"/>
<path fill-rule="evenodd" clip-rule="evenodd" d="M281.75 -9.49902C287.273 -9.49902 291.75 -5.02187 291.75 0.500977V27.7341C291.75 36.8285 289.683 45.804 285.704 53.982L248.479 130.5C245.131 137.383 238.148 141.751 230.494 141.751H183C177.477 141.751 173 137.274 173 131.751C173 126.228 177.477 121.751 183 121.751H230.494L267.719 45.2327C270.372 39.7807 271.75 33.7971 271.75 27.7341V0.500977C271.75 -5.02187 276.227 -9.49902 281.75 -9.49902Z" fill="url(#paint7_linear_3004_4813)"/>
<path fill-rule="evenodd" clip-rule="evenodd" d="M281.75 -9.49902C287.273 -9.49902 291.75 -5.02187 291.75 0.500977V27.7341C291.75 36.8285 289.683 45.804 285.704 53.982L248.479 130.5C245.131 137.383 238.148 141.751 230.494 141.751H183C177.477 141.751 173 137.274 173 131.751C173 126.228 177.477 121.751 183 121.751H230.494L267.719 45.2327C270.372 39.7807 271.75 33.7971 271.75 27.7341V0.500977C271.75 -5.02187 276.227 -9.49902 281.75 -9.49902Z" fill="url(#paint8_linear_3004_4813)"/>
<path d="M242.783 130.274C241.215 133.472 237.945 135.501 234.36 135.501H199.183C196.597 135.501 194.5 133.421 194.5 130.855C194.5 128.29 196.597 126.21 199.183 126.21H234.36L240.281 114.974C241.082 113.453 242.66 112.501 244.379 112.501C247.853 112.501 250.091 116.183 248.492 119.266L242.783 130.274Z" fill="url(#paint9_linear_3004_4813)"/>
<path d="M204.864 84.501H256.5C259.814 84.501 262.5 87.1873 262.5 90.501C262.5 93.8147 259.814 96.501 256.5 96.501H211.751C207.551 96.501 203.639 94.323 201.413 90.7618C199.714 88.0433 201.658 84.501 204.864 84.501Z" fill="url(#paint10_linear_3004_4813)"/>
<path opacity="0.5" d="M256.5 96.501H211.651C208.821 96.501 206.128 95.5039 204.006 93.751H261.544C260.476 95.4056 258.616 96.501 256.5 96.501Z" fill="#407AEA"/>
<defs>
<linearGradient id="paint0_linear_3004_4813" x1="86.4062" y1="84.501" x2="86.4062" y2="96.501" gradientUnits="userSpaceOnUse">
<stop stop-color="#BAECF7"/>
<stop offset="1" stop-color="#84DDF1"/>
</linearGradient>
<linearGradient id="paint1_linear_3004_4813" x1="116" y1="-9.49902" x2="116" y2="141.751" gradientUnits="userSpaceOnUse">
<stop stop-color="#5CD6C0"/>
<stop offset="0.567708" stop-color="#70F2F2"/>
<stop offset="1" stop-color="#26AEF2"/>
</linearGradient>
<linearGradient id="paint2_linear_3004_4813" x1="144.875" y1="-9.49902" x2="144.875" y2="141.751" gradientUnits="userSpaceOnUse">
<stop stop-color="#4A7DDF"/>
<stop offset="1" stop-color="#3595F4"/>
</linearGradient>
<linearGradient id="paint3_linear_3004_4813" x1="160.25" y1="112.501" x2="106.25" y2="132.001" gradientUnits="userSpaceOnUse">
<stop stop-color="#CBD4E6"/>
<stop offset="0.321516" stop-color="#ACC5F6"/>
<stop offset="1" stop-color="#CBD4E6"/>
</linearGradient>
<linearGradient id="paint4_linear_3004_4813" x1="165" y1="84.501" x2="165" y2="96.501" gradientUnits="userSpaceOnUse">
<stop stop-color="#BAECF7"/>
<stop offset="1" stop-color="#84DDF1"/>
</linearGradient>
<linearGradient id="paint5_linear_3004_4813" x1="203.5" y1="-9.49902" x2="203.5" y2="141.751" gradientUnits="userSpaceOnUse">
<stop offset="0.0208333" stop-color="#9D8CF2"/>
<stop offset="0.567708" stop-color="#707FF2"/>
<stop offset="1" stop-color="#266AF2"/>
</linearGradient>
<linearGradient id="paint6_linear_3004_4813" x1="203.5" y1="-9.49902" x2="203.5" y2="141.751" gradientUnits="userSpaceOnUse">
<stop stop-color="#5CD6C0"/>
<stop offset="0.567708" stop-color="#70F2F2"/>
<stop offset="1" stop-color="#26AEF2"/>
</linearGradient>
<linearGradient id="paint7_linear_3004_4813" x1="232.375" y1="-9.49902" x2="232.375" y2="141.751" gradientUnits="userSpaceOnUse">
<stop stop-color="#4413A0"/>
<stop offset="0.520833" stop-color="#3D13A0"/>
<stop offset="1" stop-color="#1513A0"/>
</linearGradient>
<linearGradient id="paint8_linear_3004_4813" x1="232.375" y1="-9.49902" x2="232.375" y2="141.751" gradientUnits="userSpaceOnUse">
<stop stop-color="#4A7DDF"/>
<stop offset="1" stop-color="#3595F4"/>
</linearGradient>
<linearGradient id="paint9_linear_3004_4813" x1="247.75" y1="112.501" x2="193.75" y2="132.001" gradientUnits="userSpaceOnUse">
<stop stop-color="#CBD4E6"/>
<stop offset="0.321516" stop-color="#ACC5F6"/>
<stop offset="1" stop-color="#CBD4E6"/>
</linearGradient>
<linearGradient id="paint10_linear_3004_4813" x1="223.906" y1="84.501" x2="223.906" y2="96.501" gradientUnits="userSpaceOnUse">
<stop stop-color="#BAECF7"/>
<stop offset="1" stop-color="#84DDF1"/>
</linearGradient>
</defs>
</svg>
