<svg width="320" height="180" viewBox="0 0 320 180" fill="none" xmlns="http://www.w3.org/2000/svg">
<path d="M34.8643 108.501H86.5C89.8137 108.501 92.5 111.187 92.5 114.501C92.5 117.815 89.8137 120.501 86.5 120.501H41.7506C37.5512 120.501 33.6387 118.323 31.413 114.762C29.7139 112.043 31.6584 108.501 34.8643 108.501Z" fill="url(#paint0_linear_3004_4761)"/>
<path opacity="0.5" d="M86.4937 120.501H41.6447C38.8148 120.501 36.1214 119.504 34 117.751H91.5381C90.4699 119.406 88.6097 120.501 86.4937 120.501Z" fill="#407AEA"/>
<path d="M62.9943 165.751H15.5C9.97715 165.751 5.5 161.274 5.5 155.751C5.5 150.228 9.97715 145.751 15.5 145.751H62.9943L100.219 69.2327C102.872 63.7807 104.25 57.7971 104.25 51.7341V24.501C104.25 18.9781 108.727 14.501 114.25 14.501H161.5V60.501L116.5 154.5H108.5V165.751H62.9943Z" fill="url(#paint1_linear_3004_4761)"/>
<path opacity="0.5" d="M115.5 22.854V30.0871C115.5 35.6099 119.977 40.0871 125.5 40.0871H134C139.523 40.0871 144 35.6099 144 30.0871V22.854C144 19.3629 145.789 16.2897 148.5 14.501H120C117.289 16.2897 115.5 19.3629 115.5 22.854Z" fill="#BCBAF7"/>
<path opacity="0.5" d="M62.9944 165.751H15.5001C11.5959 165.751 8.2142 163.514 6.56738 160.251H108.5V165.751H62.9944Z" fill="#1513A0"/>
<path fill-rule="evenodd" clip-rule="evenodd" d="M161.75 14.501C167.273 14.501 171.75 18.9781 171.75 24.501V51.7341C171.75 60.8285 169.683 69.804 165.704 77.982L128.479 154.5C125.131 161.383 118.148 165.751 110.494 165.751H63C57.4772 165.751 53 161.274 53 155.751C53 150.228 57.4772 145.751 63 145.751H110.494L147.719 69.2327C150.372 63.7807 151.75 57.797 151.75 51.7341V24.501C151.75 18.9781 156.227 14.501 161.75 14.501Z" fill="url(#paint2_linear_3004_4761)"/>
<path d="M122.783 154.274C121.215 157.472 117.945 159.501 114.36 159.501H79.1833C76.5968 159.501 74.5 157.421 74.5 154.855C74.5 152.29 76.5968 150.21 79.1833 150.21H114.36L120.281 138.974C121.082 137.453 122.66 136.501 124.379 136.501C127.853 136.501 130.091 140.183 128.492 143.266L122.783 154.274Z" fill="url(#paint3_linear_3004_4761)"/>
<path d="M84.8643 108.501H136.5C139.814 108.501 142.5 111.187 142.5 114.501C142.5 117.815 139.814 120.501 136.5 120.501H91.7506C87.5512 120.501 83.6387 118.323 81.413 114.762C79.7139 112.043 81.6584 108.501 84.8643 108.501Z" fill="url(#paint4_linear_3004_4761)"/>
<path opacity="0.5" d="M136.5 120.501H91.651C88.8211 120.501 86.1277 119.504 84.0063 117.751H141.544C140.476 119.406 138.616 120.501 136.5 120.501Z" fill="#407AEA"/>
<path d="M110.279 108.501H160.133C163.447 108.501 166.133 111.187 166.133 114.501C166.133 117.815 163.447 120.501 160.133 120.501H117.004C112.881 120.501 109.058 118.348 106.92 114.822L106.816 114.65C105.18 111.951 107.123 108.501 110.279 108.501Z" fill="url(#paint5_linear_3004_4761)"/>
<path opacity="0.5" d="M160.308 120.501H116.807C114.063 120.501 111.45 119.504 109.393 117.751H165.2C164.164 119.406 162.36 120.501 160.308 120.501Z" fill="#407AEA"/>
<path d="M137.515 165.751H91.4492C86.0925 165.751 81.75 161.274 81.75 155.751C81.75 150.228 86.0925 145.751 91.4492 145.751H137.515L173.621 69.2327C176.193 63.7807 177.53 57.7971 177.53 51.7341V24.501C177.53 18.9781 181.873 14.501 187.229 14.501H233.058V60.501L189.412 154.5H181.652V165.751H137.515Z" fill="url(#paint6_linear_3004_4761)"/>
<path opacity="0.5" d="M188.441 22.854V30.0871C188.441 35.6099 192.919 40.0871 198.441 40.0871H206.084C211.607 40.0871 216.084 35.6099 216.084 30.0871V22.854C216.084 19.3629 217.819 16.2897 220.449 14.501H192.806C190.176 16.2897 188.441 19.3629 188.441 22.854Z" fill="#BCBAF7"/>
<path opacity="0.5" d="M137.515 165.751H91.4492C87.6624 165.751 84.3824 163.514 82.7852 160.251H181.652V165.751H137.515Z" fill="#1513A0"/>
<path fill-rule="evenodd" clip-rule="evenodd" d="M233.301 14.501C238.657 14.501 243 18.9781 243 24.501V51.7341C243 60.8285 240.995 69.804 237.136 77.982L201.03 154.5C197.783 161.383 191.01 165.751 183.586 165.751H137.521C132.164 165.751 127.821 161.274 127.821 155.751C127.821 150.228 132.164 145.751 137.521 145.751H183.586L219.692 69.2327C222.265 63.7807 223.601 57.797 223.601 51.7341V24.501C223.601 18.9781 227.944 14.501 233.301 14.501Z" fill="url(#paint7_linear_3004_4761)"/>
<path d="M195.506 154.274C193.985 157.472 190.813 159.501 187.336 159.501H153.217C150.709 159.501 148.675 157.421 148.675 154.855C148.675 152.29 150.709 150.21 153.217 150.21H187.336L193.083 138.965C193.856 137.453 195.411 136.501 197.11 136.501C200.476 136.501 202.662 140.047 201.149 143.055L195.506 154.274Z" fill="url(#paint8_linear_3004_4761)"/>
<path d="M166.98 108.501H231.384C234.697 108.501 237.384 111.187 237.384 114.501C237.384 117.815 234.697 120.501 231.384 120.501H173.906C169.658 120.501 165.719 118.282 163.517 114.65C161.881 111.951 163.824 108.501 166.98 108.501Z" fill="url(#paint9_linear_3004_4761)"/>
<path opacity="0.5" d="M231.558 120.501H173.509C170.764 120.501 168.151 119.504 166.094 117.751H236.45C235.414 119.406 233.61 120.501 231.558 120.501Z" fill="#407AEA"/>
<path d="M208.765 165.751H162.699C157.343 165.751 153 161.274 153 155.751C153 150.228 157.343 145.751 162.699 145.751H208.765L244.871 69.2327C247.443 63.7807 248.78 57.7971 248.78 51.7341V24.501C248.78 18.9781 253.123 14.501 258.479 14.501H304.308V60.501L260.662 154.5H252.902V165.751H208.765Z" fill="url(#paint10_linear_3004_4761)"/>
<path opacity="0.5" d="M259.691 22.854V30.0871C259.691 35.6099 264.169 40.0871 269.691 40.0871H277.334C282.857 40.0871 287.334 35.6099 287.334 30.0871V22.854C287.334 19.3629 289.069 16.2897 291.699 14.501H264.056C261.426 16.2897 259.691 19.3629 259.691 22.854Z" fill="#BCBAF7"/>
<path opacity="0.5" d="M208.765 165.751H162.699C158.912 165.751 155.632 163.514 154.035 160.251H252.902V165.751H208.765Z" fill="#1513A0"/>
<path fill-rule="evenodd" clip-rule="evenodd" d="M304.551 14.501C309.907 14.501 314.25 18.9781 314.25 24.501V51.7341C314.25 60.8285 312.245 69.804 308.386 77.982L272.28 154.5C269.033 161.383 262.26 165.751 254.836 165.751H208.771C203.414 165.751 199.071 161.274 199.071 155.751C199.071 150.228 203.414 145.751 208.771 145.751H254.836L290.942 69.2327C293.515 63.7807 294.851 57.797 294.851 51.7341V24.501C294.851 18.9781 299.194 14.501 304.551 14.501Z" fill="url(#paint11_linear_3004_4761)"/>
<path d="M266.756 154.274C265.235 157.472 262.063 159.501 258.586 159.501H224.467C221.959 159.501 219.925 157.421 219.925 154.855C219.925 152.29 221.959 150.21 224.467 150.21H258.586L264.333 138.965C265.106 137.453 266.661 136.501 268.36 136.501C271.726 136.501 273.912 140.047 272.399 143.055L266.756 154.274Z" fill="url(#paint12_linear_3004_4761)"/>
<path d="M230.025 108.501H279.88C283.193 108.501 285.88 111.187 285.88 114.501C285.88 117.815 283.193 120.501 279.88 120.501H236.75C232.627 120.501 228.804 118.348 226.666 114.822L226.562 114.65C224.926 111.951 226.869 108.501 230.025 108.501Z" fill="url(#paint13_linear_3004_4761)"/>
<path opacity="0.5" d="M280.06 120.501H236.56C233.815 120.501 231.203 119.504 229.145 117.751H284.953C283.917 119.406 282.112 120.501 280.06 120.501Z" fill="#407AEA"/>
<defs>
<linearGradient id="paint0_linear_3004_4761" x1="60" y1="108.501" x2="60" y2="120.501" gradientUnits="userSpaceOnUse">
<stop stop-color="#BCBAF7"/>
<stop offset="1" stop-color="#8684F1"/>
</linearGradient>
<linearGradient id="paint1_linear_3004_4761" x1="83.5" y1="14.501" x2="83.5" y2="165.751" gradientUnits="userSpaceOnUse">
<stop offset="0.0208333" stop-color="#9D8CF2"/>
<stop offset="0.567708" stop-color="#707FF2"/>
<stop offset="1" stop-color="#266AF2"/>
</linearGradient>
<linearGradient id="paint2_linear_3004_4761" x1="112.375" y1="14.501" x2="112.375" y2="165.751" gradientUnits="userSpaceOnUse">
<stop stop-color="#4413A0"/>
<stop offset="0.520833" stop-color="#3D13A0"/>
<stop offset="1" stop-color="#1513A0"/>
</linearGradient>
<linearGradient id="paint3_linear_3004_4761" x1="127.75" y1="136.501" x2="73.75" y2="156.001" gradientUnits="userSpaceOnUse">
<stop stop-color="#CBD4E6"/>
<stop offset="0.321516" stop-color="#ACC5F6"/>
<stop offset="1" stop-color="#CBD4E6"/>
</linearGradient>
<linearGradient id="paint4_linear_3004_4761" x1="110" y1="108.501" x2="110" y2="120.501" gradientUnits="userSpaceOnUse">
<stop stop-color="#BCBAF7"/>
<stop offset="1" stop-color="#8684F1"/>
</linearGradient>
<linearGradient id="paint5_linear_3004_4761" x1="134.611" y1="108.501" x2="134.611" y2="120.501" gradientUnits="userSpaceOnUse">
<stop stop-color="#BCBAF7"/>
<stop offset="1" stop-color="#8684F1"/>
</linearGradient>
<linearGradient id="paint6_linear_3004_4761" x1="157.404" y1="14.501" x2="157.404" y2="165.751" gradientUnits="userSpaceOnUse">
<stop offset="0.0208333" stop-color="#9D8CF2"/>
<stop offset="0.567708" stop-color="#707FF2"/>
<stop offset="1" stop-color="#266AF2"/>
</linearGradient>
<linearGradient id="paint7_linear_3004_4761" x1="185.411" y1="14.501" x2="185.411" y2="165.751" gradientUnits="userSpaceOnUse">
<stop stop-color="#4413A0"/>
<stop offset="0.520833" stop-color="#3D13A0"/>
<stop offset="1" stop-color="#1513A0"/>
</linearGradient>
<linearGradient id="paint8_linear_3004_4761" x1="200.323" y1="136.501" x2="147.587" y2="154.972" gradientUnits="userSpaceOnUse">
<stop stop-color="#CBD4E6"/>
<stop offset="0.321516" stop-color="#ACC5F6"/>
<stop offset="1" stop-color="#CBD4E6"/>
</linearGradient>
<linearGradient id="paint9_linear_3004_4761" x1="191.312" y1="108.501" x2="191.312" y2="120.501" gradientUnits="userSpaceOnUse">
<stop stop-color="#BCBAF7"/>
<stop offset="1" stop-color="#8684F1"/>
</linearGradient>
<linearGradient id="paint10_linear_3004_4761" x1="228.654" y1="14.501" x2="228.654" y2="165.751" gradientUnits="userSpaceOnUse">
<stop offset="0.0208333" stop-color="#9D8CF2"/>
<stop offset="0.567708" stop-color="#707FF2"/>
<stop offset="1" stop-color="#266AF2"/>
</linearGradient>
<linearGradient id="paint11_linear_3004_4761" x1="256.661" y1="14.501" x2="256.661" y2="165.751" gradientUnits="userSpaceOnUse">
<stop stop-color="#4413A0"/>
<stop offset="0.520833" stop-color="#3D13A0"/>
<stop offset="1" stop-color="#1513A0"/>
</linearGradient>
<linearGradient id="paint12_linear_3004_4761" x1="271.573" y1="136.501" x2="218.837" y2="154.972" gradientUnits="userSpaceOnUse">
<stop stop-color="#CBD4E6"/>
<stop offset="0.321516" stop-color="#ACC5F6"/>
<stop offset="1" stop-color="#CBD4E6"/>
</linearGradient>
<linearGradient id="paint13_linear_3004_4761" x1="254.357" y1="108.501" x2="254.357" y2="120.501" gradientUnits="userSpaceOnUse">
<stop stop-color="#BCBAF7"/>
<stop offset="1" stop-color="#8684F1"/>
</linearGradient>
</defs>
</svg>
