<svg width="14" height="14" viewBox="0 0 14 14" fill="none" xmlns="http://www.w3.org/2000/svg">
<path d="M13.0393 0.25H0.960735C0.776336 0.262452 0.602704 0.341331 0.472017 0.472017C0.341331 0.602704 0.262452 0.776336 0.25 0.960735V13.0393C0.251043 13.2274 0.326258 13.4076 0.459322 13.5407C0.592385 13.6737 0.772558 13.749 0.960735 13.75H7.42644V8.49215H5.72068V6.50288H7.49712V5.01074C7.45883 4.65289 7.49993 4.291 7.6175 3.95086C7.73506 3.61071 7.9262 3.30068 8.17728 3.04284C8.42836 2.78501 8.73322 2.58572 9.07013 2.45918C9.40703 2.33264 9.7677 2.28195 10.1264 2.31074C10.8372 2.31074 11.4764 2.38141 11.6893 2.38141V4.22932H10.6236C9.77068 4.22932 9.62853 4.65576 9.62853 5.22435V6.50288H11.6178L11.3335 8.56362H9.55785V13.75H13.0393C13.2274 13.749 13.4076 13.6737 13.5407 13.5407C13.6737 13.4076 13.749 13.2274 13.75 13.0393V0.960735C13.7375 0.776336 13.6587 0.602704 13.528 0.472017C13.3973 0.341331 13.2237 0.262452 13.0393 0.25V0.25Z" fill="#407AEA"/>
</svg>
