<svg width="80" height="76" viewBox="0 0 80 76" fill="none" xmlns="http://www.w3.org/2000/svg">
<path d="M43.3565 2.54404C41.889 -0.0631777 38.237 -0.063188 36.7696 2.54404L26.4352 20.9055C25.7103 22.1934 24.4574 23.0723 23.0292 23.2947L3.66187 26.3105C0.408984 26.817 -0.732042 31.0513 1.80127 33.2151L16.2291 45.5385C17.5647 46.6793 18.1926 48.4787 17.8682 50.2351L14.0941 70.6687C13.4975 73.8988 16.7866 76.4085 19.6087 74.8765L37.8455 64.9768C39.2335 64.2233 40.8925 64.2233 42.2806 64.9768L60.5174 74.8765C63.3395 76.4085 66.6286 73.8988 66.0319 70.6687L62.2578 50.2351C61.9334 48.4787 62.5614 46.6793 63.8969 45.5385L78.3248 33.2151C80.8581 31.0513 79.7171 26.817 76.4642 26.3105L57.0968 23.2947C55.6687 23.0723 54.4158 22.1934 53.6909 20.9055L43.3565 2.54404Z" fill="#605DEC"/>
</svg>
