<svg width="16" height="16" viewBox="0 0 16 16" fill="none" xmlns="http://www.w3.org/2000/svg">
<g clip-path="url(#clip0_3033_14142)">
<path d="M15.1171 8.13689C15.1171 7.53945 15.0687 7.10348 14.9638 6.65137H8.1416V9.3479H12.146C12.0653 10.018 11.6294 11.0272 10.6605 11.7054L10.6469 11.7956L12.804 13.4667L12.9534 13.4816C14.3259 12.214 15.1171 10.349 15.1171 8.13689Z" fill="#4285F4"/>
<path d="M8.14154 15.2412C10.1034 15.2412 11.7504 14.5953 12.9534 13.4812L10.6605 11.705C10.0469 12.1329 9.22337 12.4316 8.14154 12.4316C6.22005 12.4316 4.58921 11.1641 4.00785 9.41211L3.92264 9.41935L1.67972 11.1552L1.65039 11.2367C2.84526 13.6103 5.29963 15.2412 8.14154 15.2412Z" fill="#34A853"/>
<path d="M4.00848 9.41241C3.85509 8.9603 3.76631 8.47585 3.76631 7.97531C3.76631 7.47472 3.85509 6.99033 4.00041 6.53821L3.99635 6.44192L1.72532 4.67822L1.65102 4.71357C1.15855 5.69855 0.875977 6.80465 0.875977 7.97531C0.875977 9.14597 1.15855 10.252 1.65102 11.237L4.00848 9.41241Z" fill="#FBBC05"/>
<path d="M8.14154 3.51856C9.50595 3.51856 10.4263 4.10793 10.9511 4.60045L13.0018 2.59819C11.7424 1.42753 10.1034 0.708984 8.14154 0.708984C5.29963 0.708984 2.84526 2.33983 1.65039 4.71343L3.99978 6.53808C4.58921 4.78612 6.22005 3.51856 8.14154 3.51856Z" fill="#EB4335"/>
</g>
<defs>
<clipPath id="clip0_3033_14142">
<rect width="14.25" height="14.5825" fill="white" transform="translate(0.875 0.708984)"/>
</clipPath>
</defs>
</svg>
