<svg width="73" height="70" viewBox="0 0 73 70" fill="none" xmlns="http://www.w3.org/2000/svg">
<path fill-rule="evenodd" clip-rule="evenodd" d="M30.7572 3.4984C33.3252 -1.06425 39.7162 -1.06424 42.2842 3.4984L50.1485 17.4712C50.8734 18.7591 52.1263 19.638 53.5545 19.8604L66.6137 21.8939C72.3063 22.7803 74.303 30.1903 69.8697 33.9769L60.3546 42.1042C59.019 43.245 58.3911 45.0444 58.7155 46.8008L61.3808 61.2314C62.4249 66.8841 56.669 71.2761 51.7304 68.5952L38.7382 61.5425C37.3502 60.789 35.6912 60.789 34.3031 61.5425L21.311 68.5952C16.3723 71.2761 10.6164 66.8841 11.6605 61.2314L14.3259 46.8008C14.6503 45.0444 14.0223 43.245 12.6868 42.1042L3.17161 33.9769C-1.26168 30.1903 0.735113 22.7803 6.42766 21.8939L19.4869 19.8604C20.915 19.638 22.1679 18.7591 22.8928 17.4712L30.7572 3.4984ZM37.344 6.45374C36.9772 5.80193 36.0642 5.80193 35.6973 6.45373L27.833 20.4265C26.2382 23.26 23.4818 25.1936 20.3399 25.6828L7.28066 27.7164C6.46743 27.843 6.18218 28.9015 6.81551 29.4425L16.3307 37.5698C19.2688 40.0794 20.6504 44.0381 19.9366 47.9023L17.2713 62.3329C17.1221 63.1404 17.9444 63.7679 18.6499 63.3849L31.6421 56.3321C34.6957 54.6745 38.3456 54.6745 41.3993 56.3321L54.3914 63.3849C55.0969 63.7679 55.9192 63.1404 55.7701 62.3329L53.1047 47.9023C52.391 44.0381 53.7725 40.0794 56.7107 37.5698L66.2258 29.4425C66.8592 28.9015 66.5739 27.843 65.7607 27.7164L52.7015 25.6828C49.5596 25.1936 46.8031 23.26 45.2084 20.4265L37.344 6.45374Z" fill="#605DEC"/>
</svg>
